<?xml version="1.0" standalone="no"?><!DOCTYPE svg PUBLIC "-//W3C//DTD SVG 1.1//EN" "http://www.w3.org/Graphics/SVG/1.1/DTD/svg11.dtd"><svg t="1688098875033" class="icon" viewBox="0 0 1024 1024" version="1.1" xmlns="http://www.w3.org/2000/svg" p-id="841" xmlns:xlink="http://www.w3.org/1999/xlink" width="200" height="200"><path d="M146.304 877.696V292.736c0-3.84 0.426667-7.253333 1.706667-10.666667 0.853333-3.413333 2.133333-6.4 4.266666-9.386666 1.706667-2.986667 4.266667-5.546667 6.826667-8.106667 2.56-2.133333 5.546667-3.84 8.96-5.546667l328.96-146.346666c2.56-0.853333 4.693333-1.706667 7.253333-2.133334 2.56-0.426667 5.12-0.853333 7.68-0.853333s5.12 0.426667 7.68 0.853333 4.693333 1.28 7.253334 2.133334l328.96 146.346666c3.413333 1.706667 6.4 3.413333 8.96 5.546667 2.986667 2.56 5.12 5.12 6.826666 8.106667 2.133333 2.986667 3.413333 5.973333 4.693334 9.386666 0.853333 3.413333 1.28 6.826667 1.28 10.666667v584.96c0 2.56 0 4.693333-0.426667 7.253333-0.426667 2.133333-1.28 4.693333-2.133333 6.826667-0.853333 2.133333-2.133333 4.266667-3.413334 6.4-1.28 1.706667-2.986667 3.84-4.693333 5.546667-1.706667 1.706667-3.413333 2.986667-5.546667 4.266666a22.613333 22.613333 0 0 1-6.4 3.413334c-2.133333 0.853333-4.266667 1.706667-6.826666 2.133333-2.133333 0.426667-4.693333 0.853333-6.826667 0.853333H182.997333c-2.56 0-4.693333-0.426667-7.253333-0.853333a32 32 0 0 1-6.826667-2.133333c-2.133333-0.853333-4.266667-2.133333-6.4-3.413334a27.392 27.392 0 0 1-5.546666-4.266666c-1.706667-1.706667-2.986667-3.84-4.693334-5.546667-1.28-2.133333-2.133333-4.266667-2.986666-6.4-1.28-2.133333-1.706667-4.693333-2.133334-6.826667-0.426667-2.56-0.853333-4.693333-0.853333-7.253333z m658.346667-36.693333v-524.8l-292.693334-129.706667-292.693333 129.706667v524.8z" p-id="842" fill="#58c1f8"></path><path d="M402.389333 694.869333c-2.56 0-4.693333 0.426667-7.253333 0.853334-2.56 0.426667-4.693333 0.853333-6.826667 2.133333-2.133333 0.853333-4.266667 1.706667-6.4 2.986667-2.133333 1.706667-3.84 2.986667-5.546666 4.693333-1.706667 1.706667-2.986667 3.413333-4.693334 5.546667-1.28 2.133333-2.133333 4.266667-2.986666 6.4-1.28 2.133333-1.706667 4.266667-2.133334 6.826666-0.426667 2.56-0.853333 4.693333-0.853333 7.253334 0 2.133333 0.426667 4.693333 0.853333 6.826666 0.426667 2.56 0.853333 4.693333 2.133334 7.253334 0.853333 2.133333 1.706667 4.266667 2.986666 5.973333 1.706667 2.133333 2.986667 3.84 4.693334 5.546667 1.706667 1.706667 3.413333 3.413333 5.546666 4.693333s4.266667 2.56 6.4 3.413333c2.133333 0.853333 4.266667 1.706667 6.826667 2.133334 2.56 0.426667 4.693333 0.426667 7.253333 0.426666h219.306667c2.56 0 4.693333 0 7.253333-0.426666 2.133333-0.426667 4.693333-1.28 6.826667-2.133334 2.133333-0.853333 4.266667-2.133333 6.4-3.413333 1.706667-1.28 3.84-2.986667 5.546667-4.693333 1.706667-1.706667 2.986667-3.413333 4.266666-5.546667 1.28-1.706667 2.56-3.84 3.413334-5.973333 0.853333-2.56 1.706667-4.693333 2.133333-7.253334 0.426667-2.133333 0.853333-4.693333 0.853333-6.826666 0-2.56-0.426667-4.693333-0.853333-7.253334a32 32 0 0 0-2.133333-6.826666c-0.853333-2.133333-2.133333-4.266667-3.413334-6.4a27.392 27.392 0 0 0-4.266666-5.546667c-1.706667-1.706667-3.84-2.986667-5.546667-4.693333-2.133333-1.28-4.266667-2.133333-6.4-2.986667-2.133333-1.28-4.693333-1.706667-6.826667-2.133333-2.56-0.426667-4.693333-0.853333-7.253333-0.853334h-219.306667z" p-id="843" fill="#58c1f8"></path></svg>