<?xml version="1.0" standalone="no"?><!DOCTYPE svg PUBLIC "-//W3C//DTD SVG 1.1//EN" "http://www.w3.org/Graphics/SVG/1.1/DTD/svg11.dtd"><svg t="1750346092765" class="icon" viewBox="0 0 1024 1024" version="1.1" xmlns="http://www.w3.org/2000/svg" p-id="3393" xmlns:xlink="http://www.w3.org/1999/xlink" width="64" height="64"><path d="M351.997 698.663h320.006c0.006 0 0.012 0 0.019 0 14.718 0 26.649-11.932 26.649-26.649 0-0.007 0-0.013 0-0.021v-319.996c0-0.006 0-0.012 0-0.019 0-14.718-11.932-26.649-26.649-26.649-0.007 0-0.013 0-0.021 0h-320.005c-0.006 0-0.012 0-0.019 0-14.718 0-26.649 11.932-26.649 26.649 0 0.007 0 0.013 0 0.021v320.005c0 0.003 0 0.007 0 0.009 0 14.718 11.932 26.649 26.649 26.649 0.007 0 0.013 0 0.021 0zM378.666 378.666h266.669v266.669h-266.669z" fill="#77b900" p-id="3394"></path><path d="M965.331 471.997c14.729 0 26.669-11.94 26.669-26.669s-11.94-26.669-26.669-26.669h-93.331v-79.997h93.331c14.729 0 26.669-11.94 26.669-26.669s-11.94-26.669-26.669-26.669h-93.331v-106.656c0-0.006 0-0.012 0-0.019 0-14.718-11.932-26.649-26.649-26.649-0.007 0-0.013 0-0.021 0h-106.665v-93.331c0 0 0 0 0 0 0-14.729-11.94-26.669-26.669-26.669-14.729 0-26.669 11.94-26.669 26.669 0 0 0 0 0 0v93.331h-79.997v-93.331c0 0 0 0 0 0 0-14.729-11.94-26.669-26.669-26.669-14.729 0-26.669 11.94-26.669 26.669 0 0 0 0 0 0v93.331h-79.997v-93.331c0-14.729-11.94-26.669-26.669-26.669s-26.669 11.94-26.669 26.669v93.331h-79.997v-93.331c0-14.729-11.94-26.669-26.669-26.669s-26.669 11.94-26.669 26.669v93.331h-106.656c-0.006 0-0.012 0-0.019 0-14.718 0-26.649 11.932-26.649 26.649 0 0.007 0 0.013 0 0.021v106.665h-93.331c-14.729 0-26.669 11.94-26.669 26.669s11.94 26.669 26.669 26.669h93.331v79.997h-93.331c-14.729 0-26.669 11.94-26.669 26.669s11.94 26.669 26.669 26.669h93.331v79.997h-93.331c0 0 0 0 0 0-14.729 0-26.669 11.94-26.669 26.669 0 14.729 11.94 26.669 26.669 26.669 0 0 0 0 0 0h93.331v79.997h-93.331c0 0 0 0 0 0-14.729 0-26.669 11.94-26.669 26.669 0 14.729 11.94 26.669 26.669 26.669 0 0 0 0 0 0h93.331v106.656c0 0.006 0 0.012 0 0.019 0 14.718 11.932 26.649 26.649 26.649 0.007 0 0.013 0 0.021 0h106.665v93.331c0 14.729 11.94 26.669 26.669 26.669s26.669-11.94 26.669-26.669v-93.331h79.997v93.331c0 14.729 11.94 26.669 26.669 26.669s26.669-11.94 26.669-26.669v-93.331h79.997v93.331c0 0 0 0 0 0 0 14.729 11.94 26.669 26.669 26.669 14.729 0 26.669-11.94 26.669-26.669 0 0 0 0 0 0v-93.331h79.997v93.331c0 0 0 0 0 0 0 14.729 11.94 26.669 26.669 26.669 14.729 0 26.669-11.94 26.669-26.669 0 0 0 0 0 0v-93.331h106.656c0.006 0 0.012 0 0.019 0 14.718 0 26.649-11.932 26.649-26.649 0-0.007 0-0.013 0-0.021v-106.665h93.331c0 0 0 0 0 0 14.729 0 26.669-11.94 26.669-26.669 0-14.729-11.94-26.669-26.669-26.669 0 0 0 0 0 0h-93.331v-79.997h93.331c0 0 0 0 0 0 14.729 0 26.669-11.94 26.669-26.669 0-14.729-11.94-26.669-26.669-26.669 0 0 0 0 0 0h-93.331v-79.997zM818.663 818.663h-613.325v-613.325h613.325z" fill="#77b900" p-id="3395"></path></svg>