<?xml version="1.0" standalone="no"?><!DOCTYPE svg PUBLIC "-//W3C//DTD SVG 1.1//EN" "http://www.w3.org/Graphics/SVG/1.1/DTD/svg11.dtd"><svg t="1750357848140" class="icon" viewBox="0 0 1024 1024" version="1.1" xmlns="http://www.w3.org/2000/svg" p-id="68714" xmlns:xlink="http://www.w3.org/1999/xlink" width="64" height="64"><path d="M940.032 268.032l2.368-1.6a54.016 54.016 0 0 0-19.2-20.8L536.768 23.232A47.424 47.424 0 0 0 512 17.6a56.768 56.768 0 0 0-24.832 5.632l-384 223.168c-13.568 8-23.168 28.032-23.168 43.2v445.632c0 8.768 1.6 18.368 7.232 27.2l-1.664 0.768c4.032 6.4 9.6 12.032 15.232 15.168L486.4 1001.6c6.4 4.032 15.232 5.632 24.832 5.632 9.6 0 18.368-2.432 24.768-5.632l384-223.232c13.632-8 23.232-27.968 23.232-43.2V288.896c0.768-6.4 0-13.632-3.2-20.8zM512 828.032A316.16 316.16 0 0 1 195.968 512 316.16 316.16 0 0 1 512 196.032a316.16 316.16 0 0 1 274.368 160l-104 59.968A195.2 195.2 0 0 0 512 316.032 196.288 196.288 0 0 0 315.968 512 196.288 196.288 0 0 0 512 708.032a196.096 196.096 0 0 0 170.368-99.2l103.232 60.8A316.032 316.032 0 0 1 512 828.032z m408-332.032h-25.6l-7.168 32h32.768v40h-40l-9.6 48h-39.168l9.6-48h-30.464l-9.6 48h-38.4l9.6-48h-19.968V528h28.032l7.168-32h-35.2v-40h42.368l9.6-48h39.232l-9.6 48h30.4l9.6-48h38.4l-9.6 48h17.6v40z m-101.632 32h30.4l7.232-32H825.6l-7.232 32z" fill="#68217A" p-id="68715"></path></svg>