<?xml version="1.0" standalone="no"?><!DOCTYPE svg PUBLIC "-//W3C//DTD SVG 1.1//EN" "http://www.w3.org/Graphics/SVG/1.1/DTD/svg11.dtd"><svg t="1750349925129" class="icon" viewBox="0 0 1024 1024" version="1.1" xmlns="http://www.w3.org/2000/svg" p-id="34218" xmlns:xlink="http://www.w3.org/1999/xlink" width="64" height="64"><path d="M682.667 546.133v-68.266h68.266v68.266h-68.266z" fill="#512BD4" p-id="34219"></path><path d="M512 28.74l443.733 258.867v448.786L512 995.328 68.267 736.393V287.607L512 28.672z m-79.735 244.327A227.465 227.465 0 0 0 204.8 500.53v22.938a227.465 227.465 0 0 0 329.114 203.434l27.511-13.653-30.583-61.099-27.444 13.654a159.13 159.13 0 0 1-230.331-142.268V500.6a159.198 159.198 0 0 1 230.331-142.404l27.444 13.722 30.583-61.03-27.511-13.722a227.465 227.465 0 0 0-101.718-24.098zM614.4 341.333V409.6h-68.267v68.267H614.4v68.266h-68.267V614.4H614.4v68.267h68.267V614.4h68.266v68.267H819.2V614.4h68.267v-68.267H819.2v-68.266h68.267V409.6H819.2v-68.267h-68.267V409.6h-68.266v-68.267H614.4z" fill="#512BD4" p-id="34220"></path></svg>