<?xml version="1.0" standalone="no"?><!DOCTYPE svg PUBLIC "-//W3C//DTD SVG 1.1//EN" "http://www.w3.org/Graphics/SVG/1.1/DTD/svg11.dtd"><svg t="1750357608700" class="icon" viewBox="0 0 1024 1024" version="1.1" xmlns="http://www.w3.org/2000/svg" p-id="58330" xmlns:xlink="http://www.w3.org/1999/xlink" width="64" height="64"><path d="M719.552 524.48l-135.04 78.016a64 64 0 0 0-32 55.424v155.968a64 64 0 0 0 32 55.424l135.04 78.016a64 64 0 0 0 64 0l135.104-78.016a64 64 0 0 0 32-55.424V657.92a64 64 0 0 0-32-55.424l-135.04-78.08a64 64 0 0 0-64 0z m-103.04 133.44l135.04-78.08 135.104 78.08v155.968l-135.04 78.016-135.168-78.016V657.92z m139.904-8.768a88.96 88.96 0 1 0 0 177.92 88.96 88.96 0 0 0 0-177.92z m0 64a24.96 24.96 0 1 1 0 49.92 24.96 24.96 0 0 1 0-49.92zM828.032 96H192a96 96 0 0 0-96 96v64a96 96 0 0 0 96 96h636.032a96 96 0 0 0 96-96v-64a96 96 0 0 0-96-96zM192 160h636.032a32 32 0 0 1 32 32v64a32 32 0 0 1-32 32H192a32 32 0 0 1-32-32v-64a32 32 0 0 1 32-32z m590.72 32a32 32 0 0 1 5.76 63.488l-5.76 0.512h-128a32 32 0 0 1-5.76-63.488l5.76-0.512h128z m39.872 181.12c55.488 0 101.44 42.368 101.44 96a32 32 0 0 1-63.488 5.76l-0.512-5.76c0-15.36-13.12-28.992-31.232-31.552l-6.208-0.448H197.44c-19.072 0-34.176 12.16-36.992 26.944l-0.448 5.12v64c0 15.36 13.12 28.928 31.232 31.488l6.208 0.448h254.848a32 32 0 0 1 5.76 63.488l-5.76 0.512H197.44c-52.352 0-96.32-37.76-100.992-87.168L96 533.12v-64c0-50.624 40.96-91.264 92.288-95.616l9.152-0.384h625.152zM464.064 650.24a32 32 0 0 1 5.76 63.488l-5.76 0.576H192a32 32 0 0 0-31.488 26.24l-0.512 5.76v64a32 32 0 0 0 26.24 31.424l5.76 0.576h271.808a32 32 0 0 1 5.76 63.424l-5.76 0.576H192a96 96 0 0 1-95.552-86.784L96 810.304v-64a96 96 0 0 1 86.784-95.616l9.216-0.384h272.064z" fill="#333333" p-id="58331"></path></svg>