<?xml version="1.0" standalone="no"?><!DOCTYPE svg PUBLIC "-//W3C//DTD SVG 1.1//EN" "http://www.w3.org/Graphics/SVG/1.1/DTD/svg11.dtd"><svg t="1750358257330" class="icon" viewBox="0 0 1024 1024" version="1.1" xmlns="http://www.w3.org/2000/svg" p-id="80466" xmlns:xlink="http://www.w3.org/1999/xlink" width="64" height="64"><path d="M508.842667 0c140.8 0 260.864 51.114667 360.021333 153.344 99.157333 102.229333 148.736 225.28 148.736 369.066667a513.706667 513.706667 0 0 1-97.621333 306.688c-65.109333 90.88-148.48 153.685333-249.856 188.586666h-9.130667c-18.176 0-27.306667-9.130667-27.306667-27.306666l1.194667-51.114667c0.768-32.512 1.109333-62.464 1.109333-89.685333 0-43.946667-12.117333-76.544-36.266666-97.706667 69.632-9.045333 126.037333-31.402667 169.216-66.986667 43.093333-35.584 64.682667-98.816 64.682666-189.696 0-54.528-17.408-101.461333-52.224-140.8 15.189333-43.946667 13.653333-90.112-4.522666-138.581333H765.44c-34.816 0-77.994667 18.176-129.536 54.528a477.696 477.696 0 0 0-127.146667-18.176c-40.96 0-83.285333 5.973333-127.146666 18.176-51.541333-36.352-94.72-54.613333-129.536-54.613333h-11.349334c-18.176 48.554667-19.712 94.72-4.608 138.666666a205.397333 205.397333 0 0 0-52.224 140.8c0 90.88 21.248 154.112 63.658667 189.696 42.325333 35.584 98.389333 57.941333 168.106667 66.986667-16.725333 16.64-27.306667 40.106667-31.829334 70.4-18.176 9.130667-37.888 13.653333-59.050666 13.653333-37.888 0-67.413333-18.944-88.661334-56.832-19.626667-33.28-46.08-51.456-79.445333-54.442666-31.829333 0-32.597333 10.581333-2.304 31.744 22.698667 12.117333 41.642667 37.888 56.832 77.226666 1.450667 6.058667 4.522667 13.312 9.045333 21.589334 4.522667 8.362667 17.066667 19.285333 37.546667 32.938666 20.394667 13.653333 44.970667 20.48 73.728 20.48 21.248 0 37.888-1.536 50.005333-4.522666v88.576c0 16.64-8.362667 24.917333-25.002666 24.917333h-9.045334c-102.997333-34.816-186.624-97.28-251.050666-187.392C32.170667 740.096 0 637.525333 0 522.410667c0-143.786667 49.578667-266.837333 148.821333-369.066667C247.978667 51.114667 367.957333 0 508.842667 0z" fill="#000000" p-id="80467"></path></svg>