<?xml version="1.0" standalone="no"?><!DOCTYPE svg PUBLIC "-//W3C//DTD SVG 1.1//EN" "http://www.w3.org/Graphics/SVG/1.1/DTD/svg11.dtd"><svg t="1750358310550" class="icon" viewBox="0 0 1025 1024" version="1.1" xmlns="http://www.w3.org/2000/svg" p-id="81450" xmlns:xlink="http://www.w3.org/1999/xlink" width="64.0625" height="64"><path d="M919.256686 0 104.686849 0C46.922746 0 0 46.866281 0 104.743314l0 814.569837c0 57.820568 46.866281 104.686849 104.686849 104.686849L919.256686 1024c57.820568 0 104.686849-46.696884 104.686849-104.686849L1023.943535 104.743314C1024.056465 46.866281 977.190185 0 919.256686 0zM220.045658 118.803198c56.634795 0 102.484698 42.010256 102.484698 93.732561 0 51.609374-45.849904 93.619631-102.484698 93.619631S117.560959 264.145134 117.560959 212.53576C117.448029 160.813455 163.467328 118.803198 220.045658 118.803198zM332.807058 905.309733 107.284257 905.309733 107.284257 378.035842l225.522801 0L332.807058 905.309733zM905.479129 902.712324l-171.259553 0 0-281.141219c0-55.844279-37.380094-104.799779-97.233416-104.799779-59.909788 0-81.761897 45.624042-81.761897 88.368348 0 57.651172 0 297.629115 0 297.629115L383.908244 902.76879 383.908244 380.576785l171.316019 0 0 77.30113c24.78831-34.952082 87.803695-78.938627 154.828122-78.938627 83.512324 0 100.677805 16.205569 135.121698 50.536532 65.330466 65.386931 59.232203 156.747946 60.192115 184.585387l0.169396 0L905.479129 902.712324z" p-id="81451"></path></svg>