<?xml version="1.0" standalone="no"?><!DOCTYPE svg PUBLIC "-//W3C//DTD SVG 1.1//EN" "http://www.w3.org/Graphics/SVG/1.1/DTD/svg11.dtd"><svg t="1750357525723" class="icon" viewBox="0 0 1024 1024" version="1.1" xmlns="http://www.w3.org/2000/svg" p-id="54530" xmlns:xlink="http://www.w3.org/1999/xlink" width="64" height="64"><path d="M512 474.5c57.6 0 104.5-46.9 104.5-104.5S569.6 265.5 512 265.5 407.5 312.4 407.5 370 454.4 474.5 512 474.5z m0-159c30.1 0 54.5 24.4 54.5 54.5s-24.4 54.5-54.5 54.5-54.5-24.4-54.5-54.5 24.4-54.5 54.5-54.5z" fill="#3b82f6" p-id="54531"></path><path d="M434.1 705.5c30.8 33.4 55.6 49 77.9 49s47.1-15.6 77.9-49c24.1-26.1 50.9-62.7 75.4-103.1 21.3-34.9 90.6-155.8 90.6-243.9 0-65.2-25.4-126.4-71.5-172.5-46.1-46.1-107.4-71.5-172.5-71.5S385.6 139.9 339.5 186C293.4 232.1 268 293.3 268 358.5c0 88.1 69.4 208.9 90.6 243.9 24.6 40.3 51.4 77 75.5 103.1zM318 358.5c0-107 87-194 194-194s194 87 194 194c0 24.8-8.1 58.9-23.5 98.5-14.5 37.2-34.6 77.5-58.2 116.7-22.5 37.3-46.9 71.2-68.8 95.4-28.7 31.8-41.9 35.2-43.5 35.5-1.6-0.3-14.8-3.7-43.5-35.5-21.8-24.2-46.3-58.1-68.8-95.4-23.6-39.1-43.7-79.5-58.2-116.7-15.4-39.6-23.5-73.7-23.5-98.5z" fill="#3b82f6" p-id="54532"></path><path d="M908.4 850.5l-39.9-249c-5-31.3-31.6-54-63.3-54H745c-13.8 0-25 11.2-25 25s11.2 25 25 25h60.2c7 0 12.8 5 13.9 11.9l39.9 249c0 0.2 0.1 0.4-0.2 0.8-0.3 0.3-0.6 0.3-0.7 0.3H166c-0.2 0-0.5 0-0.7-0.3-0.3-0.3-0.2-0.6-0.2-0.8l39.9-249c1.1-6.9 7-11.9 13.9-11.9H279c13.8 0 25-11.2 25-25s-11.2-25-25-25h-60.2c-31.7 0-58.3 22.7-63.3 54l-39.9 249c-2.4 14.8 1.8 29.8 11.5 41.1 9.7 11.4 23.8 17.9 38.8 17.9h692c15 0 29.1-6.5 38.8-17.9 9.8-11.4 14-26.4 11.7-41.1z" fill="#3b82f6" p-id="54533"></path></svg>