<?xml version="1.0" standalone="no"?><!DOCTYPE svg PUBLIC "-//W3C//DTD SVG 1.1//EN" "http://www.w3.org/Graphics/SVG/1.1/DTD/svg11.dtd"><svg t="1750350432890" class="icon" viewBox="0 0 1307 1024" version="1.1" xmlns="http://www.w3.org/2000/svg" p-id="48721" xmlns:xlink="http://www.w3.org/1999/xlink" width="81.6875" height="64"><path d="M1163.786894 512c0 282.776511-229.898894 512-513.50332 512S136.780255 794.776511 136.780255 512 366.679149 0 650.305362 0c283.582638 0 513.481532 229.223489 513.481532 512z m-65.361703 0q0-85.166298-31.438978-164.341106-34.140596-85.994213-99.741958-151.421277-65.623149-65.427064-151.94417-99.502298Q735.798468 65.361702 650.283574 65.361702t-165.01651 31.373617Q398.96783 130.810553 333.344681 196.237617t-99.763745 151.421277Q202.141957 426.811915 202.141957 512q0 85.166298 31.438979 164.341106 34.140596 85.994213 99.763745 151.421277 65.623149 65.427064 151.922383 99.502298Q564.790468 958.638298 650.283574 958.638298q85.514894 0 165.016511-31.373617 86.321021-34.075234 151.94417-99.502298 65.601362-65.427064 99.741958-151.421277 31.438979-79.174809 31.438978-164.341106z" fill="#999999" p-id="48722"></path><path d="M296.524255 533.351489c0 135.625532 70.438128 254.365957 175.866554 319.96732l508.819063-138.675745a379.533617 379.533617 0 0 0 45.644256-181.269787c0-206.60834-163.491404-374.086809-365.154043-374.086809-201.662638 0-365.154043 167.478468-365.154042 374.086809z" fill="#EAEAEA" p-id="48723"></path><path d="M1101.017872 283.669787q-2.67983 0.283234-5.294298 0.980426l-0.936851 0.261447q-9.521021 2.83234-15.839319 10.523234-8.605957 10.457872-7.276936 23.922383 0.261447 2.67983 0.936851 5.185361l0.196085 0.675405q3.268085 11.351149 13.072341 17.996255 9.760681 6.645106 21.525787 5.51217h0.152511q73.444766-7.124426 104.970893 6.754043 20.044255 8.802043 26.580426 33.16017 10.087489 37.49583-18.715234 85.079149-31.526128 52.115064-102.617873 105.820596-73.314043 55.361362-175.757617 102.487148-106.866383 49.173787-229.746383 82.007149-122.88 32.811574-240.095319 43.530894-112.356766 10.24-203.601702-1.154723-88.499745-11.067915-141.94383-40.458894-48.803404-26.86366-58.869106-64.359489-7.995915-29.696 10.196425-53.182639 26.493277-34.227745 100.286639-47.648681 1.307234-0.217872 2.614468-0.588255 1.590468-0.435745 3.137361-1.002213 11.046128-4.204936 16.86332-14.48851 5.795404-10.283574 3.660255-21.917958-0.23966-1.307234-0.566468-2.505532l-0.152511-0.566468q-3.224511-11.264-12.854468-17.930893-11.155064-7.712681-24.488851-5.272511-98.412936 17.887319-140.222638 71.897872-19.412426 25.055319-24.510639 55.404937-4.531745 27.059745 2.875915 54.66417 17.320851 64.403064 90.547745 104.709447 64.424851 35.469617 165.408681 48.084425 98.260426 12.288 217.654468 1.372596 122.749277-11.198638 251.010723-45.469958 128.283234-34.271319 240.204256-85.754553 108.870809-50.110638 187.805957-109.72051 81.113872-61.265702 119.132596-124.078298 43.204085-71.418553 25.905021-135.821617-14.684596-54.685957-63.466213-76.102809-47.191149-20.763234-137.738893-11.982979h-0.043575z" fill="#999999" p-id="48724"></path><path d="M387.834553 489.254128a79.872 79.654128 0 1 0 159.744 0 79.872 79.654128 0 1 0-159.744 0Z" fill="#999999" p-id="48725"></path><path d="M547.578553 318.572936a45.644255 45.513532 0 1 0 91.288511 0 45.644255 45.513532 0 1 0-91.288511 0Z" fill="#999999" p-id="48726"></path></svg>