<?xml version="1.0" standalone="no"?><!DOCTYPE svg PUBLIC "-//W3C//DTD SVG 1.1//EN" "http://www.w3.org/Graphics/SVG/1.1/DTD/svg11.dtd"><svg t="1750358206678" class="icon" viewBox="0 0 1129 1024" version="1.1" xmlns="http://www.w3.org/2000/svg" p-id="76824" xmlns:xlink="http://www.w3.org/1999/xlink" width="70.5625" height="64"><path d="M68.504541 512c0 273.054897 222.24331 494.344828 496.463448 494.344828 274.220138 0 496.463448-221.289931 496.463448-494.344828 0-273.019586-222.24331-494.344828-496.463448-494.344828-274.220138 0-496.463448 221.325241-496.463448 494.344828z m910.194758 0c0 227.539862-185.238069 412.001103-413.73131 412.001103-228.528552 0-413.766621-184.461241-413.766621-412.001103C151.201368 284.495448 336.439437 100.034207 564.967989 100.034207c228.493241 0 413.73131 184.461241 413.73131 411.965793z" fill="#665D56" p-id="76825"></path><path d="M812.140403 83.155862c3.177931-1.05931 6.603034-2.118621 10.204689-3.248552 22.739862-7.062069 54.095448-15.713103 87.675587-21.53931 33.085793-5.720276 70.867862-9.18069 105.577931-4.237241 34.498207 4.908138 72.73931 19.244138 95.479172 55.437241 27.259586 43.361103 21.715862 94.384552 3.884138 140.747034-18.043586 46.962759-51.411862 97.032828-93.21931 147.067587-83.897379 100.38731-208.896 208.542897-340.497656 300.985379-131.425103 92.407172-272.560552 171.290483-389.684965 211.297103-58.156138 19.879724-114.017103 31.426207-161.368276 27.859863-48.904828-3.672276-94.278621-24.646621-116.241655-73.798621-32.344276-72.386207-2.118621-143.39531 26.65931-188.592552 12.005517-18.643862 25.529379-36.263724 40.395035-52.683034l6.461793 25.282207 3.990069 12.146758 3.707586 11.864276s5.932138 17.196138 8.580414 22.881103c0 0 5.261241 14.194759 9.533793 21.080276 0 0-1.871448 2.612966-2.542345 3.636966-24.505379 38.452966-35.80469 77.506207-20.903724 110.874483 5.720276 12.747034 17.408 22.775172 46.680276 24.999724 30.825931 2.330483 74.187034-5.225931 128.03531-23.622621 106.884414-36.510897 240.781241-110.697931 368.781242-200.633379 127.858759-89.864828 246.784-193.253517 324.572689-286.366897C996.990058 297.842759 1024.002472 255.717517 1037.420403 220.830897c13.594483-35.380966 10.663724-55.790345 3.319172-67.442759-4.413793-7.097379-14.37131-14.336-36.864-17.549241-22.280828-3.142621-50.281931-1.200552-79.554207 3.884137-10.593103 1.906759-21.186207 4.06069-31.673379 6.532414" fill="#F67B3B" p-id="76826"></path><path d="M437.850748 494.980414a85.451034 85.451034 0 0 1-85.592276 85.203862 85.415724 85.415724 0 0 1-85.592276-85.203862 85.415724 85.415724 0 0 1 85.592276-85.239173 85.451034 85.451034 0 0 1 85.627586 85.239173z" fill="#F67B3B" p-id="76827"></path></svg>