<?xml version="1.0" standalone="no"?><!DOCTYPE svg PUBLIC "-//W3C//DTD SVG 1.1//EN" "http://www.w3.org/Graphics/SVG/1.1/DTD/svg11.dtd"><svg t="1750350389683" class="icon" viewBox="0 0 1024 1024" version="1.1" xmlns="http://www.w3.org/2000/svg" p-id="46724" xmlns:xlink="http://www.w3.org/1999/xlink" width="64" height="64"><path d="M887.9 815.5H130c-36.4 0-66-29.6-66-66V145c0-36.4 29.6-66 66-66h757.8c36.4 0 66 29.6 66 66v604.5c0.1 36.4-29.5 66-65.9 66zM130 139c-3.3 0-6 2.7-6 6v604.5c0 3.3 2.7 6 6 6h757.8c3.3 0 6-2.7 6-6V145c0-3.3-2.7-6-6-6H130zM727 948H291c-16.6 0-30-13.4-30-30s13.4-30 30-30h436c16.6 0 30 13.4 30 30s-13.4 30-30 30z" fill="#666666" p-id="46725"></path><path d="M515.2 357.1c-54.4 0-98.7-44.3-98.7-98.7s44.3-98.7 98.7-98.7 98.7 44.3 98.7 98.7-44.3 98.7-98.7 98.7z m0-137.3c-21.3 0-38.7 17.3-38.7 38.7s17.3 38.7 38.7 38.7 38.7-17.3 38.7-38.7-17.4-38.7-38.7-38.7zM297.2 542.1c-54.4 0-98.7-44.3-98.7-98.7s44.3-98.7 98.7-98.7 98.7 44.3 98.7 98.7-44.3 98.7-98.7 98.7z m0-137.3c-21.3 0-38.7 17.3-38.7 38.7s17.3 38.7 38.7 38.7 38.7-17.3 38.7-38.7-17.4-38.7-38.7-38.7zM515.2 727.1c-54.4 0-98.7-44.3-98.7-98.7s44.3-98.7 98.7-98.7 98.7 44.3 98.7 98.7-44.3 98.7-98.7 98.7z m0-137.3c-21.3 0-38.7 17.3-38.7 38.7s17.3 38.7 38.7 38.7 38.7-17.3 38.7-38.7-17.4-38.7-38.7-38.7zM722.2 549.1c-54.4 0-98.7-44.3-98.7-98.7s44.3-98.7 98.7-98.7 98.7 44.3 98.7 98.7-44.3 98.7-98.7 98.7z m0-137.3c-21.3 0-38.7 17.3-38.7 38.7s17.3 38.7 38.7 38.7 38.7-17.3 38.7-38.7-17.4-38.7-38.7-38.7z" fill="#666666" p-id="46726"></path><path d="M460 617.6c-6.6 0-13.3-2.2-18.9-6.7l-116-93.9c-12.9-10.4-14.9-29.3-4.4-42.2 10.4-12.9 29.3-14.9 42.2-4.4l116 93.9c12.9 10.4 14.9 29.3 4.4 42.2-5.9 7.3-14.6 11.1-23.3 11.1z" fill="#666666" p-id="46727"></path><path d="M515 590c-16.6 0-30-13.4-30-30V327c0-16.6 13.4-30 30-30s30 13.4 30 30v233c0 16.6-13.4 30-30 30z" fill="#666666" p-id="46728"></path><path d="M670.6 435.1c-7.4 0-14.7-2.7-20.5-8.1l-105.8-99.3c-12.1-11.3-12.7-30.3-1.3-42.4 11.3-12.1 30.3-12.7 42.4-1.3l105.8 99.3c12.1 11.3 12.7 30.3 1.3 42.4-5.9 6.2-13.9 9.4-21.9 9.4z" fill="#666666" p-id="46729"></path></svg>