<?xml version="1.0" standalone="no"?><!DOCTYPE svg PUBLIC "-//W3C//DTD SVG 1.1//EN" "http://www.w3.org/Graphics/SVG/1.1/DTD/svg11.dtd"><svg t="1750350517200" class="icon" viewBox="0 0 1024 1024" version="1.1" xmlns="http://www.w3.org/2000/svg" p-id="49786" xmlns:xlink="http://www.w3.org/1999/xlink" width="64" height="64"><path d="M768.172089 0c76.088889 0 138.752 57.258667 142.08 129.820444l0.142222 6.087112v323.868444a28.444444 28.444444 0 0 1-56.689778 3.299556L853.505422 459.776V135.907556c0-41.728-35.185778-76.458667-80.270222-78.876445L768.172089 56.888889H142.394311C96.598756 56.888889 59.7632 90.140444 57.2032 131.299556L57.060978 135.907556v706.816a28.444444 28.444444 0 0 1-56.689778 3.299555L0.172089 842.723556V135.879111C0.172089 62.520889 60.758756 3.299556 136.079644 0.170667L142.394311 0h625.777778z" fill="#BE0503" p-id="49787"></path><path d="M426.838756 682.666667a28.444444 28.444444 0 0 1 3.328 56.689777L426.838756 739.555556H170.838756a113.777778 113.777778 0 0 0-5.688889 227.413333L170.838756 967.111111h426.666666a28.444444 28.444444 0 0 1 3.328 56.689778L597.505422 1024H170.838756a170.666667 170.666667 0 0 1-6.4-341.219556L170.838756 682.666667h256z" fill="#BE0503" p-id="49788"></path><path d="M142.394311 824.888889m28.444445 0l256 0q28.444444 0 28.444444 28.444444l0 0q0 28.444444-28.444444 28.444445l-256 0q-28.444444 0-28.444445-28.444445l0 0q0-28.444444 28.444445-28.444444Z" fill="#D8D8D8" p-id="49789"></path><path d="M739.727644 512a199.111111 199.111111 0 1 1 0 398.222222 199.111111 199.111111 0 0 1 0-398.222222z m0 56.888889a142.222222 142.222222 0 1 0 0 284.444444 142.222222 142.222222 0 0 0 0-284.444444z" fill="#BE0503" p-id="49790"></path><path d="M829.953422 841.557333l40.220445-40.220444 140.8 140.8a28.444444 28.444444 0 0 1-40.248889 40.220444l-140.8-140.8z" fill="#BE0503" p-id="49791"></path></svg>