<?xml version="1.0" standalone="no"?><!DOCTYPE svg PUBLIC "-//W3C//DTD SVG 1.1//EN" "http://www.w3.org/Graphics/SVG/1.1/DTD/svg11.dtd"><svg t="1750347347521" class="icon" viewBox="0 0 1336 1024" version="1.1" xmlns="http://www.w3.org/2000/svg" p-id="29102" xmlns:xlink="http://www.w3.org/1999/xlink" width="83.5" height="64"><path d="M979.958532 488.329504c0-19.510227-15.780331-35.290558-35.290558-35.290558-19.510227 0-35.290558 15.780331-35.290557 35.290558 0 5.021014 1.14766 9.898571 3.012608 14.345755 2.295321 13.198095 5.307929 36.581676 5.30793 71.728776 0 217.91202-159.811712 377.580275-377.723733 377.580274S162.25049 792.172597 162.25049 574.404035c0-217.91202 159.811712-377.580275 377.723732-377.580275 34.860185 0 39.594284-1.578033 70.007285 4.734099l0.143458-0.717287c1.004203 0.143458 2.008406 0.286915 2.869151 0.286915 18.649482 0 33.712525-15.2065 33.712525-33.712525 0-16.067246-11.189689-29.26534-26.109275-32.708321l0.286915-2.008406c-38.303166-6.742505-40.024657-6.312132-81.053516-6.312132-247.607733 0-448.448305 200.697114-448.448305 448.161389 0 247.607733 200.840572 448.304847 448.448305 448.304848 247.607733 0 448.448305-200.697114 448.448305-448.304848 0-38.876996-3.156066-57.096105-8.607453-84.783412 0.143458-0.717288 0.286915-1.14766 0.286915-1.434576m-444.718409-58.243766c1.291118 0.143458 2.438778 0.430373 3.873354 0.430373 19.510227 0 35.290558-15.780331 35.290558-35.290558 0-19.079854-15.2065-34.57327-34.286355-35.1471v-1.004203c-118.92631 0-215.329784 96.403474-215.329784 215.186327 0 118.92631 96.403474 215.186327 215.329784 215.186327 118.209022 0 214.038666-95.255814 215.186327-213.177921 0.143458-1.14766 0.286915-2.295321 0.286915-3.586439 0-19.510227-15.780331-35.290558-35.290558-35.290557-19.510227 0-35.290558 15.780331-35.290557 35.290557 0 0.57383 0.143458 1.14766 0.143457 1.578033h-0.57383c0 89.087139-55.374615 144.461754-144.461754 144.461754s-144.461754-55.374615-144.461754-144.461754c-0.143458-87.365649 53.366209-142.022976 139.584197-144.174839M1113.230597 215.616699L915.689549 198.832166l-16.927991-197.971421-70.581115 71.298403v0.143458l-143.170636 126.52956h-0.286915v176.30933L487.181844 555.467638l37.872793 54.657327 214.182124-197.254133h176.30933v-0.286915l0.143458 0.286915 143.314093-143.170636-0.143457-0.143457h0.143457L1113.230597 215.616699m-234.983469 143.457551h-122.943121v-122.943121L844.964976 146.47016v122.943121h122.943122l-89.66097 89.660969" p-id="29103"></path></svg>