<?xml version="1.0" standalone="no"?><!DOCTYPE svg PUBLIC "-//W3C//DTD SVG 1.1//EN" "http://www.w3.org/Graphics/SVG/1.1/DTD/svg11.dtd"><svg t="1750358704179" class="icon" viewBox="0 0 1024 1024" version="1.1" xmlns="http://www.w3.org/2000/svg" p-id="86215" xmlns:xlink="http://www.w3.org/1999/xlink" width="64" height="64"><path d="M455.317333 424.128h0.298667a37.056 37.056 0 0 0 36.266667-25.429333l2.133333-6.656a41.088 41.088 0 0 0-38.016-53.717334h-0.682667a200.533333 200.533333 0 0 0-192.597333 137.28 203.562667 203.562667 0 0 0 192.597333 268.522667 197.525333 197.525333 0 0 0 166.208-87.018667 215.637333 215.637333 0 0 0 35.626667-95.637333 42.368 42.368 0 0 0-57.109333-43.968 42.944 42.944 0 0 0-28.224 34.346667 114.645333 114.645333 0 0 1-67.605334 96.576 110.72 110.72 0 0 1-43.84 9.898666h-0.64a119.957333 119.957333 0 0 1-119.082666-92.885333 117.333333 117.333333 0 0 1 114.666666-141.312z" fill="#535453" p-id="86216"></path><path d="M798.570667 442.688h-0.192a43.264 43.264 0 0 0-26.88 48.362667 306.986667 306.986667 0 0 1-4.096 124.501333 313.002667 313.002667 0 0 1-617.344-84.672 318.378667 318.378667 0 0 1 207.573333-280.768 290.752 290.752 0 0 1 148.928-16.576 42.389333 42.389333 0 0 0 46.165333-29.717333 43.008 43.008 0 0 0-34.944-55.466667 384.576 384.576 0 0 0-54.869333-3.968 398.933333 398.933333 0 0 0-398.933333 398.933333v0.128a394.666667 394.666667 0 0 0 273.066666 379.541334 400.128 400.128 0 0 0 524.8-379.733334 400.32 400.32 0 0 0-5.653333-67.157333 43.136 43.136 0 0 0-57.621333-33.408z" fill="#535453" p-id="86217"></path><path d="M414.421333 523.861333l35.093334 73.173334 249.941333-230.912 88.661333 2.858666 142.421334-103.722666-154.816-25.152C769.322667 181.546667 760.554667 85.333333 760.554667 85.333333c-31.125333 42.901333-106.666667 144.362667-106.666667 144.362667l-8.533333 82.304z" fill="#535453" p-id="86218"></path></svg>