<?xml version="1.0" standalone="no"?><!DOCTYPE svg PUBLIC "-//W3C//DTD SVG 1.1//EN" "http://www.w3.org/Graphics/SVG/1.1/DTD/svg11.dtd"><svg t="1750357710363" class="icon" viewBox="0 0 1024 1024" version="1.1" xmlns="http://www.w3.org/2000/svg" p-id="63777" xmlns:xlink="http://www.w3.org/1999/xlink" width="64" height="64"><path d="M42.666667 810.666667c-12.8 0-21.333333-4.266667-29.866667-12.8-17.066667-17.066667-17.066667-42.666667 0-59.733334l320-320c17.066667-17.066667 42.666667-17.066667 59.733333 0l183.466667 183.466667 375.466667-375.466667c17.066667-17.066667 42.666667-17.066667 59.733333 0s17.066667 42.666667 0 59.733334l-405.333333 405.333333c-17.066667 17.066667-42.666667 17.066667-59.733334 0l-183.466666-183.466667-290.133334 290.133334c-8.533333 8.533333-17.066667 12.8-29.866666 12.8z" p-id="63778"></path><path d="M981.333333 554.666667c-25.6 0-42.666667-17.066667-42.666666-42.666667V298.666667h-213.333334c-25.6 0-42.666667-17.066667-42.666666-42.666667s17.066667-42.666667 42.666666-42.666667h256c25.6 0 42.666667 17.066667 42.666667 42.666667v256c0 25.6-17.066667 42.666667-42.666667 42.666667z" p-id="63779"></path></svg>